<?xml version="1.0" encoding="UTF-8"?>
<svg id="Layer_2" data-name="Layer 2" xmlns="http://www.w3.org/2000/svg" viewBox="0 0 954.48 754">
  <defs>
    <style>
      .cls-1 {
        fill: #208ea9;
      }

      .cls-2 {
        fill: #7d888e;
      }

      .cls-3 {
        fill: #2caee4;
      }

      .cls-4 {
        fill: #7e898f;
      }
    </style>
  </defs>
  <g id="Layer_4" data-name="Layer 4">
    <path class="cls-1" d="M910.6,502.05c-6.31,3.44-21.28,2.88-29.31.26-11.22-3.4-19.52-12.74-25.9-22.09-5.09-7.67-7.45-12.49-12.53-22.04-16.35-31.11-43.73-84.01-55.4-106.53-4.06-7.24-6.08-13.9-7.19-22.47-2.37-14.25-3.35-28.14,7.45-39.6,3.7-3.78,8.43-8.63,11.37-6.51,8.12,12.43,16.34,31,31.57,59.1,24.6,46.93,57.4,109.5,80.06,152.76,1.18,2.34,2.93,5.37-.05,7.09l-.07.04Z"/>
  </g>
  <g id="Layer_3" data-name="Layer 3">
    <path class="cls-4" d="M811.12,249.54c4.22-2.95,6.67.82,8.38,4.29,16.68,32.89,38.84,76.64,58.84,116.13,18.36,36.22,42.93,84.75,58.18,114.85,3.46,6.66,5.34,10.22-1.07,11.8-8.09,1.46-19.69,1.52-26.2-3.91-2.53-2.22-4.28-5.34-6-8.45-20.66-39.02-84.85-155.53-104.19-193.79-6.01-12.38,1.75-33.6,11.98-40.87l.08-.05Z"/>
  </g>
  <path class="cls-2" d="M727.66,467.45c-1.18-.76-.57-3.98,1.53-9.43,1.64-4.2,3.77-9.22,5.58-13.62,2.19-5.2,4.2-10.39,6.64-15.33,2.84-5.67,5.5-8.1,10.88-9.8,20.44-5.7,44.89-5.22,64.31.59,11.86,3.2,16.99,15.07,22.28,25.3,3.64,8.21,10.15,19.12,9.03,27.55-.61,4.61-2.93,9.01-5.61,12.74-1.44,2.03-2.74,3.69-3.61,4.34-.39.27-.64.41-.98.29-.69-.28-.65-2.08-.49-4.86.9-8.95-.71-18.22-8-24.8-6.59-6.66-15.29-9.01-24.28-9.75-13.46-1.52-27.81-.73-40.81,1.97-9.48,1.79-17.61,5.81-26.08,10.56-2.12,1.17-3.97,2.24-6.11,3.29-1.73.88-3.59,1.48-4.24.98l-.05-.03Z"/>
  <path class="cls-3" d="M668.35,498.09c22-49.19,56.41-126.23,80.82-180.83,14.83-33.16,26.79-59.98,30.45-68.11.44-.91.79-1.79,1.67-2.01.59-.09,1.38.28,2.55,1.25,7.47,6.42,15.78,20.34,17.42,31.95,2.03,11.7-1.27,24.05-5.48,33.73-16.7,35.52-59.86,134.77-71.83,162.05-1.91,3.91-3.04,5.44-7.18,9.62-11.68,11.78-32.38,17.91-48.43,14.12"/>
</svg>